name rise30.3154peak39.0474fall46.5389.mot
datacolumns 19
datarows 20
range 9.83829900000000 9.86996900000000
endheader
time	ground_force1_vx	ground_force1_vy	ground_force1_vz	ground_force1_px	ground_force1_py	ground_force1_pz	ground_force2_vx	ground_force2_vy	ground_force2_vz	ground_force2_px	ground_force2_py	ground_force2_pz	ground_torque1_x	ground_torque1_y	ground_torque1_z	ground_torque2_x	ground_torque2_y	ground_torque2_z	
9.83829900000000	-51.72148900000000	810.44475599999998	55.56850700000000	0.15305900000000	0.00000000000000	0.10175800000000	-5.30933000000000	34.26573200000000	5.17016700000000	0.35312500000000	0.00000000000000	-0.08598700000000	0.00000000000000	26.90459200000000	0.00000000000000	0.00000000000000	3.30497400000000	0.00000000000000	
9.83996600000000	-51.79982400000000	807.82675700000004	55.36942700000000	0.15233100000000	0.00000000000000	0.10162400000000	-6.03861500000000	40.93866500000000	5.97271400000000	0.35635600000000	0.00000000000000	-0.08664500000000	0.00000000000000	26.75508800000000	0.00000000000000	0.00000000000000	3.84673700000000	0.00000000000000	
9.84163300000000	-51.88387200000000	805.08757500000002	55.15117600000000	0.15161000000000	0.00000000000000	0.10148500000000	-6.69288300000000	47.74912500000000	6.73142300000000	0.35941600000000	0.00000000000000	-0.08723800000000	0.00000000000000	26.60321900000000	0.00000000000000	0.00000000000000	4.36872600000000	0.00000000000000	
9.84329500000000	-51.97483800000000	802.22784700000000	54.91357200000000	0.15089600000000	0.00000000000000	0.10134100000000	-7.24925800000000	54.58509200000000	7.42567800000000	0.36233500000000	0.00000000000000	-0.08777400000000	0.00000000000000	26.44926400000000	0.00000000000000	0.00000000000000	4.85779500000000	0.00000000000000	
9.84496300000000	-52.07387900000000	799.24819400000001	54.65646200000000	0.15019100000000	0.00000000000000	0.10119200000000	-7.69030900000000	61.35418300000000	8.03942400000000	0.36513800000000	0.00000000000000	-0.08826100000000	0.00000000000000	26.29349500000000	0.00000000000000	0.00000000000000	5.30353500000000	0.00000000000000	
9.84662900000000	-52.18209900000000	796.14920800000004	54.37971700000000	0.14949500000000	0.00000000000000	0.10103800000000	-8.00463600000000	67.98827100000000	8.56177700000000	0.36784600000000	0.00000000000000	-0.08870600000000	0.00000000000000	26.13617200000000	0.00000000000000	0.00000000000000	5.69870600000000	0.00000000000000	
9.84829800000000	-52.30054300000000	792.93145300000003	54.08324000000000	0.14881000000000	0.00000000000000	0.10087900000000	-8.18688200000000	74.44537900000000	8.98711500000000	0.37047400000000	0.00000000000000	-0.08911400000000	0.00000000000000	25.97754300000000	0.00000000000000	0.00000000000000	6.03935200000000	0.00000000000000	
9.84996600000000	-52.43018900000000	789.59545300000002	53.76695600000000	0.14813700000000	0.00000000000000	0.10071500000000	-8.23724600000000	80.70911300000000	9.31472300000000	0.37303400000000	0.00000000000000	-0.08948800000000	0.00000000000000	25.81784500000000	0.00000000000000	0.00000000000000	6.32461700000000	0.00000000000000	
9.85163700000000	-52.57194700000000	786.14169200000003	53.43082400000000	0.14747800000000	0.00000000000000	0.10054500000000	-8.16064000000000	86.78608500000000	9.54810200000000	0.37553500000000	0.00000000000000	-0.08983400000000	0.00000000000000	25.65729700000000	0.00000000000000	0.00000000000000	6.55635100000000	0.00000000000000	
9.85330200000000	-52.72664700000000	782.57060899999999	53.07482900000000	0.14683200000000	0.00000000000000	0.10037100000000	-7.96559400000000	92.70188899999999	9.69404500000000	0.37798600000000	0.00000000000000	-0.09015400000000	0.00000000000000	25.49610500000000	0.00000000000000	0.00000000000000	6.73854900000000	0.00000000000000	
9.85496600000000	-52.89504200000000	778.88259200000005	52.69898300000000	0.14620200000000	0.00000000000000	0.10019100000000	-7.66307100000000	98.49620500000000	9.76160900000000	0.38039100000000	0.00000000000000	-0.09045100000000	0.00000000000000	25.33445600000000	0.00000000000000	0.00000000000000	6.87671300000000	0.00000000000000	
9.85663300000000	-53.07779400000000	775.07797500000004	52.30333200000000	0.14558900000000	0.00000000000000	0.10000500000000	-7.26528400000000	104.21760999999999	9.76107800000000	0.38275600000000	0.00000000000000	-0.09072700000000	0.00000000000000	25.17252100000000	0.00000000000000	0.00000000000000	6.97719900000000	0.00000000000000	
9.85829500000000	-53.27547800000000	771.15703799999994	51.88794600000000	0.14499300000000	0.00000000000000	0.09981400000000	-6.78462700000000	109.91853999999999	9.70300500000000	0.38508400000000	0.00000000000000	-0.09098500000000	0.00000000000000	25.01044900000000	0.00000000000000	0.00000000000000	7.04660000000000	0.00000000000000	
9.85996700000000	-53.48857000000000	767.12000300000000	51.45292900000000	0.14441500000000	0.00000000000000	0.09961800000000	-6.23277700000000	115.65081000000001	9.59740400000000	0.38737600000000	0.00000000000000	-0.09122700000000	0.00000000000000	24.84837100000000	0.00000000000000	0.00000000000000	7.09121200000000	0.00000000000000	
9.86163500000000	-53.71744900000000	762.96703300000001	50.99841000000000	0.14385600000000	0.00000000000000	0.09941700000000	-5.62000700000000	121.46191800000000	9.45311200000000	0.38963500000000	0.00000000000000	-0.09145300000000	0.00000000000000	24.68639600000000	0.00000000000000	0.00000000000000	7.11661800000000	0.00000000000000	
9.86330100000000	-53.96238800000000	758.69823499999995	50.52454900000000	0.14331800000000	0.00000000000000	0.09921000000000	-4.95473800000000	127.39230600000000	9.27736200000000	0.39186100000000	0.00000000000000	-0.09166600000000	0.00000000000000	24.52461300000000	0.00000000000000	0.00000000000000	7.12738400000000	0.00000000000000	
9.86497000000000	-54.22355400000000	754.31365200000005	50.03153600000000	0.14280100000000	0.00000000000000	0.09899800000000	-4.24330700000000	133.47360000000000	9.07555000000000	0.39405400000000	0.00000000000000	-0.09186700000000	0.00000000000000	24.36308800000000	0.00000000000000	0.00000000000000	7.12689000000000	0.00000000000000	
9.86662800000000	-54.50100200000000	749.81327399999998	49.51959000000000	0.14230500000000	0.00000000000000	0.09878000000000	-3.48994200000000	139.72779700000001	8.85117400000000	0.39621500000000	0.00000000000000	-0.09205700000000	0.00000000000000	24.20186500000000	0.00000000000000	0.00000000000000	7.11727500000000	0.00000000000000	
9.86830300000000	-54.79467700000000	745.19702800000005	48.98895500000000	0.14183200000000	0.00000000000000	0.09855700000000	-2.69690400000000	146.16728699999999	8.60593800000000	0.39834200000000	0.00000000000000	-0.09223700000000	0.00000000000000	24.04096500000000	0.00000000000000	0.00000000000000	7.09948200000000	0.00000000000000	
9.86996900000000	-55.10440300000000	740.46479199999999	48.43990900000000	0.14138100000000	0.00000000000000	0.09832900000000	-1.86475400000000	152.79554899999999	8.33996800000000	0.40043500000000	0.00000000000000	-0.09240800000000	0.00000000000000	23.88038700000000	0.00000000000000	0.00000000000000	7.07339000000000	0.00000000000000	
